<svg viewBox="0 0 553 546" version="1.1" xmlns="http://www.w3.org/2000/svg" xmlns:xlink="http://www.w3.org/1999/xlink">
  <g stroke="none" stroke-width="1" fill="none" fill-rule="evenodd">
    <g id="annex-market-logo" fill="#D5A88B" fill-rule="nonzero">
      <path d="M266.622409,309.548396 C266.257409,306.915396 265.926409,303.912396 265.411409,300.942396 C264.247409,294.219396 262.192409,287.751396 259.513409,281.487396 C253.455409,267.325396 244.389409,255.437396 232.388409,245.785396 C231.802409,245.315396 231.184409,244.876396 230.551409,244.471396 C230.376409,244.359396 230.051409,244.338396 229.865409,244.426396 C229.695409,244.506396 229.521409,244.785396 229.518409,244.982396 C229.443409,248.145396 229.998409,251.254396 230.467409,254.358396 C231.619409,261.986396 233.930409,269.289396 237.046409,276.341396 C243.165409,290.190396 252.195409,301.795396 263.984409,311.269396 C264.565409,311.736396 265.216409,312.122396 265.867409,312.485396 C265.974409,312.543396 266.414409,312.305396 266.434409,312.166396 C266.535409,311.426396 266.552409,310.675396 266.622409,309.548396 M322.952409,245.285396 C322.967409,245.586396 322.941409,245.086396 322.918409,244.586396 C322.904409,244.267396 322.348409,244.023396 322.050409,244.221396 C321.424409,244.638396 320.779409,245.032396 320.193409,245.500396 C311.445409,252.483396 304.086409,260.694396 298.371409,270.340396 C290.930409,282.901396 286.586409,296.444396 285.524409,311.021396 C285.488409,311.513396 285.542409,312.023396 285.643409,312.505396 C285.668409,312.627396 286.088409,312.799396 286.238409,312.736396 C286.693409,312.547396 287.143409,312.299396 287.531409,311.994396 C295.524409,305.728396 302.434409,298.441396 307.981409,289.920396 C316.666409,276.580396 321.859409,262.029396 322.952409,245.285396 M275.834409,272.506396 C276.238409,272.194396 276.630409,272.034396 276.788409,271.746396 C277.331409,270.753396 277.788409,269.714396 278.286409,268.696396 C282.121409,260.850396 286.903409,253.617396 292.461409,246.891396 C299.745409,238.077396 308.308409,230.715396 317.905409,224.529396 C322.547409,221.538396 321.617409,222.923396 320.720409,217.727396 C320.698409,217.604396 320.659409,217.483396 320.627409,217.360396 C314.942409,195.740396 303.232409,178.178396 285.244409,164.850396 C282.612409,162.901396 279.857409,161.129396 276.980409,159.555396 C276.513409,159.299396 276.007409,159.283396 275.533409,159.518396 C274.971409,159.797396 274.427409,160.117396 273.885409,160.438396 C268.003409,163.918396 262.643409,168.081396 257.715409,172.809396 C244.248409,185.727396 235.559409,201.344396 231.347409,219.490396 C231.232409,219.980396 231.109409,220.470396 231.035409,220.967396 C230.919409,221.750396 231.008409,222.457396 231.787409,222.926396 C232.650409,223.444396 233.488409,224.006396 234.334409,224.553396 C238.676409,227.360396 242.846409,230.401396 246.778409,233.760396 C258.237409,243.549396 267.228409,255.256396 273.956409,268.723396 C274.571409,269.954396 275.181409,271.190396 275.834409,272.506396 M419.353409,372.647396 L419.353409,311.802396 L419.353409,309.156396 C419.352409,308.652396 419.413409,308.139396 419.338409,307.647396 C419.216409,306.845396 419.765409,305.880396 418.802409,305.269396 C417.943409,305.413396 417.719409,306.217396 417.280409,306.777396 C415.648409,308.858396 414.110409,311.014396 412.434409,313.058396 C405.350409,321.701396 397.027409,328.962396 387.676409,335.062396 C370.373409,346.349396 351.361409,352.206396 330.745409,352.876396 C327.100409,352.994396 323.442409,352.788396 319.791409,352.738396 C319.040409,352.729396 318.289409,352.743396 317.538409,352.766396 C317.440409,352.768396 317.318409,352.861396 317.255409,352.946396 C317.075409,353.194396 317.112409,353.426396 317.330409,353.620396 C318.362409,354.541396 319.380409,355.480396 320.429409,356.381396 C341.454409,374.435396 362.482409,392.485396 383.510409,410.535396 C394.310409,419.807396 405.109409,429.080396 415.914409,438.347396 C416.676409,439.000396 417.482409,439.602396 418.274409,440.219396 C418.525409,440.414396 419.163409,440.189396 419.179409,439.898396 C419.245409,438.645396 419.346409,437.391396 419.346409,436.137396 C419.355409,414.973396 419.353409,393.810396 419.353409,372.647396 M132.763409,372.424396 C132.763409,393.711396 132.761409,414.999396 132.768409,436.286396 C132.768409,437.542396 132.834409,438.798396 132.880409,440.054396 C132.892409,440.379396 133.504409,440.632396 133.774409,440.419396 C134.761409,439.645396 135.764409,438.888396 136.716409,438.072396 C143.410409,432.334396 150.090409,426.579396 156.779409,420.837396 C182.202409,399.015396 207.627409,377.195396 233.048409,355.370396 C233.714409,354.798396 234.351409,354.190396 234.960409,353.557396 C235.067409,353.444396 234.984409,353.121396 234.937409,352.907396 C234.922409,352.835396 234.746409,352.751396 234.644409,352.752396 C233.389409,352.762396 232.133409,352.764396 230.878409,352.812396 C222.552409,353.132396 214.270409,352.862396 206.041409,351.358396 C196.835409,349.675396 187.899409,347.140396 179.391409,343.226396 C162.004409,335.229396 147.446409,323.701396 136.032409,308.282396 C135.286409,307.276396 134.519409,306.282396 133.751409,305.292396 C133.684409,305.205396 133.491409,305.117396 133.416409,305.153396 C133.215409,305.249396 132.897409,305.402396 132.889409,305.550396 C132.813409,306.804396 132.768409,308.062396 132.768409,309.318396 C132.761409,330.354396 132.763409,351.389396 132.763409,372.424396 M345.013409,453.267396 L378.271409,453.267396 C386.082409,453.267396 393.893409,453.271396 401.703409,453.260396 C402.454409,453.259396 403.209409,453.191396 403.952409,453.089396 C404.051409,453.075396 404.226409,452.607396 404.148409,452.473396 C403.441409,451.241396 402.229409,450.505396 401.189409,449.611396 C378.355409,429.988396 355.509409,410.380396 332.664409,390.770396 C318.326409,378.462396 303.986409,366.155396 289.645409,353.851396 C288.595409,352.949396 287.530409,352.063396 286.459409,351.184396 C286.174409,350.949396 285.788409,350.690396 285.471409,350.999396 C285.236409,351.227396 285.089409,351.630396 285.061409,351.968396 C284.992409,352.846396 284.997409,353.730396 284.997409,354.611396 C284.995409,385.980396 284.994409,417.349396 284.998409,448.717396 C284.998409,449.724396 285.018409,450.733396 285.063409,451.738396 C285.105409,452.637396 285.613409,453.182396 286.435409,453.207396 C287.693409,453.246396 288.953409,453.265396 290.212409,453.265396 C308.479409,453.268396 326.746409,453.267396 345.013409,453.267396 M207.244409,453.267396 C225.632409,453.267396 244.019409,453.269396 262.406409,453.262396 C263.663409,453.262396 264.921409,453.201396 266.177409,453.152396 C266.626409,453.134396 267.105409,452.630396 267.121409,452.151396 C267.167409,450.768396 267.219409,449.385396 267.220409,448.002396 C267.225409,417.146396 267.224409,386.290396 267.223409,355.435396 C267.223409,354.301396 267.236409,353.167396 267.191409,352.035396 C267.178409,351.694396 267.010409,351.351396 266.875409,351.024396 C266.749409,350.717396 266.184409,350.861396 265.560409,351.373396 C264.976409,351.853396 264.402409,352.346396 263.829409,352.838396 C230.096409,381.792396 196.362409,410.746396 162.630409,439.701396 C158.520409,443.229396 154.415409,446.760396 150.312409,450.295396 C149.645409,450.869396 148.985409,451.456396 148.359409,452.074396 C148.217409,452.215396 148.139409,452.538396 148.195409,452.730396 C148.248409,452.914396 148.508409,453.157396 148.687409,453.167396 C149.943409,453.231396 151.201409,453.263396 152.459409,453.264396 C170.721409,453.269396 188.982409,453.267396 207.244409,453.267396 M285.588409,143.074396 C286.375409,143.585396 287.199409,144.158396 288.059409,144.672396 C291.412409,146.683396 294.639409,148.882396 297.740409,151.256396 C316.181409,165.372396 329.120409,183.401396 336.243409,205.543396 C337.014409,207.938396 337.637409,210.380396 338.333409,212.799396 C338.532409,213.488396 339.110409,213.850396 339.748409,213.668396 C340.352409,213.494396 340.947409,213.292396 341.544409,213.094396 C352.006409,209.623396 362.736409,207.593396 373.754409,207.174396 C376.394409,207.073396 379.047409,207.102396 381.685409,207.238396 C387.096409,207.520396 392.487409,208.012396 397.804409,209.131396 C398.532409,209.283396 399.286409,209.320396 400.030409,209.389396 C400.123409,209.397396 400.260409,209.285396 400.319409,209.194396 C400.383409,209.095396 400.441409,208.909396 400.393409,208.835396 C399.838409,208.004396 399.299409,207.158396 398.686409,206.369396 C370.967409,170.639396 343.240409,134.914396 315.514409,99.1913962 C306.555409,87.6473962 297.593409,76.1073962 288.631409,64.5653962 C288.013409,63.7703962 287.414409,62.9573962 286.758409,62.1943962 C286.539409,61.9423962 286.180409,61.7933962 285.862409,61.6483962 C285.619409,61.5373962 285.353409,61.9673962 285.346409,62.5073962 C285.330409,63.6413962 285.319409,64.7743962 285.318409,65.9083962 C285.317409,78.5063962 285.317409,91.1043962 285.317409,103.701396 C285.317409,115.418396 285.311409,127.133396 285.326409,138.850396 C285.328409,140.226396 285.148409,141.621396 285.588409,143.074396 M266.887409,102.398396 C266.887409,90.0613962 266.891409,77.7243962 266.880409,65.3873962 C266.879409,64.2583962 266.789409,63.1303962 266.721409,62.0033962 C266.715409,61.9103962 266.571409,61.7633962 266.476409,61.7493962 C266.259409,61.7193962 265.928409,61.6633962 265.826409,61.7783962 C265.079409,62.6273962 264.355409,63.5003962 263.662409,64.3953962 C227.076409,111.525396 190.493409,158.658396 153.912409,205.793396 C153.219409,206.688396 152.545409,207.599396 151.900409,208.529396 C151.787409,208.694396 151.846409,208.996396 151.879409,209.228396 C151.888409,209.292396 152.098409,209.383396 152.204409,209.369396 C153.445409,209.213396 154.685409,209.047396 155.924409,208.866396 C158.537409,208.485396 161.139409,207.977396 163.764409,207.726396 C170.287409,207.104396 176.812409,206.877396 183.368409,207.483396 C188.266409,207.935396 193.108409,208.617396 197.914409,209.643396 C202.472409,210.615396 206.956409,211.838396 211.363409,213.353396 C211.948409,213.553396 212.571409,213.671396 213.185409,213.742396 C213.377409,213.766396 213.692409,213.560396 213.792409,213.373396 C214.023409,212.940396 214.204409,212.465396 214.324409,211.986396 C216.489409,203.406396 219.594409,195.188396 223.799409,187.398396 C233.404409,169.605396 246.820409,155.410396 264.072409,144.854396 C267.100409,143.000396 266.879409,143.350396 266.883409,139.786396 C266.893409,127.323396 266.886409,114.861396 266.887409,102.398396 M341.525409,233.075396 C341.510409,234.152396 341.462409,235.149396 341.486409,236.145396 C341.597409,240.552396 341.558409,244.963396 341.132409,249.348396 C340.351409,257.383396 338.751409,265.269396 336.285409,272.961396 C329.402409,294.434396 316.978409,312.069396 299.372409,326.098396 C298.585409,326.725396 297.754409,327.299396 296.994409,327.958396 C296.742409,328.177396 296.652409,328.582396 296.426409,329.024396 C297.439409,329.404396 298.355409,329.785396 299.294409,330.096396 C305.772409,332.235396 312.424409,333.441396 319.215409,334.121396 C327.940409,334.994396 336.586409,334.504396 345.140409,332.853396 C358.945409,330.187396 371.473409,324.493396 382.719409,316.065396 C406.581409,298.180396 421.070409,269.036396 419.247409,237.537396 C419.211409,236.922396 419.244409,236.277396 418.539409,235.447396 C413.398409,232.734396 407.647409,230.557396 401.705409,228.900396 C393.659409,226.656396 385.446409,225.666396 377.088409,225.671396 C368.728409,225.676396 360.515409,226.686396 352.484409,228.979396 C348.764409,230.041396 345.019409,231.121396 341.525409,233.075396 M174.185409,225.702396 C170.121409,225.526396 165.356409,226.002396 160.627409,226.716396 C151.858409,228.039396 143.495409,230.729396 135.487409,234.527396 C134.921409,234.795396 134.370409,235.102396 133.828409,235.417396 C133.372409,235.682396 133.063409,236.102396 133.001409,236.616396 C132.894409,237.488396 132.827409,238.369396 132.801409,239.248396 C132.672409,243.531396 132.848409,247.798396 133.285409,252.068396 C133.697409,256.084396 134.273409,260.069396 135.257409,263.973396 C139.568409,281.086396 147.730409,296.069396 160.512409,308.329396 C178.387409,325.477396 199.756409,334.266396 224.569409,334.537396 C230.379409,334.601396 236.131409,333.934396 241.842409,332.950396 C245.936409,332.245396 249.941409,331.137396 253.873409,329.786396 C254.465409,329.583396 255.044409,329.324396 255.589409,329.020396 C255.711409,328.951396 255.767409,328.523396 255.674409,328.362396 C255.492409,328.048396 255.212409,327.772396 254.926409,327.538396 C252.877409,325.867396 250.748409,324.289396 248.770409,322.539396 C230.881409,306.716396 219.039409,287.258396 213.687409,263.928396 C212.590409,259.141396 211.705409,254.309396 211.334409,249.408396 C210.964409,244.515396 210.569409,239.613396 210.965409,234.697396 C210.985409,234.447396 210.978409,234.192396 210.945409,233.945396 C210.877409,233.430396 210.693409,232.957396 210.193409,232.722396 C209.512409,232.401396 208.819409,232.100396 208.118409,231.822396 C197.455409,227.604396 186.387409,225.577396 174.185409,225.702396 M276.184409,471.086396 L122.057409,471.086396 C120.798409,471.086396 119.538409,471.074396 118.279409,471.101396 C117.782409,471.111396 117.287409,471.208396 116.791409,471.273396 C116.506409,471.310396 116.354409,471.490396 116.356409,471.795396 C116.356409,471.904396 116.357409,472.057396 116.423409,472.115396 C117.175409,472.779396 117.909409,473.469396 118.705409,474.078396 C138.331409,489.091396 159.670409,501.061396 182.733409,509.921396 C205.066409,518.500396 228.143409,523.912396 251.990409,526.044396 C258.893409,526.662396 265.805409,527.077396 272.726409,527.187396 C284.321409,527.369396 295.873409,526.651396 307.394409,525.297396 C314.527409,524.460396 321.610409,523.347396 328.635409,521.901396 C346.562409,518.209396 363.932409,512.718396 380.687409,505.331396 C399.196409,497.171396 416.529409,487.001396 432.644409,474.768396 C433.744409,473.933396 434.799409,473.036396 435.844409,472.133396 C435.961409,472.031396 435.897409,471.688396 435.862409,471.465396 C435.851409,471.388396 435.675409,471.287396 435.569409,471.281396 C434.320409,471.206396 433.070409,471.093396 431.820409,471.093396 C379.941409,471.084396 328.062409,471.085396 276.184409,471.086396 M437.891409,348.391396 L437.891409,453.449396 C437.891409,457.985396 437.884409,462.520396 437.897409,467.055396 C437.899409,467.806396 437.983409,468.557396 438.040409,469.307396 C438.064409,469.625396 438.644409,469.883396 438.915409,469.697396 C439.432409,469.344396 439.972409,469.015396 440.448409,468.611396 C443.139409,466.331396 445.859409,464.084396 448.484409,461.731396 C481.016409,432.556396 504.764409,397.466396 519.362409,356.246396 C523.910409,343.407396 527.348409,330.269396 529.665409,316.838396 C530.629409,311.252396 531.463409,305.652396 532.036409,300.013396 C532.609409,294.373396 533.189409,288.736396 533.302409,283.064396 C533.381409,279.033396 533.418409,275.003396 533.448409,270.972396 C533.504409,263.533396 533.111409,256.110396 532.377409,248.713396 C531.730409,242.199396 530.846409,235.714396 529.724409,229.258396 C527.498409,216.453396 524.287409,203.908396 520.079409,191.621396 C509.338409,160.260396 493.098409,132.038396 471.246409,107.121396 C437.645409,68.8053962 396.279409,42.6353962 347.316409,28.4863962 C337.510409,25.6533962 327.547409,23.4923962 317.473409,21.8853962 C312.752409,21.1313962 307.978409,20.7133962 303.240409,20.0573962 C299.363409,19.5213962 295.455409,19.4593962 291.568409,19.1073962 C287.296409,18.7183962 283.015409,18.6963962 278.731409,18.6703962 C278.357409,18.6683962 277.963409,18.6933962 277.618409,18.8173962 C277.445409,18.8803962 277.219409,19.2493962 277.268409,19.3883962 C277.437409,19.8513962 277.668409,20.3123962 277.967409,20.7053962 C280.404409,23.9143962 282.846409,27.1213962 285.316409,30.3063962 C326.937409,83.9423962 368.557409,137.578396 410.191409,191.204396 C418.842409,202.347396 427.547409,213.447396 436.226409,224.569396 C436.459409,224.865396 436.684409,225.171396 436.927409,225.459396 C437.601409,226.256396 437.996409,227.140396 437.934409,228.217396 C437.890409,228.970396 437.932409,229.728396 437.931409,230.484396 C437.918409,237.285396 437.893409,244.088396 437.893409,250.891396 C437.889409,283.391396 437.891409,315.891396 437.891409,348.391396 M18.648409,272.608396 C18.796409,280.598396 19.144409,288.519396 19.852409,296.429396 C20.583409,304.592396 21.725409,312.693396 23.273409,320.730396 C26.332409,336.594396 30.843409,352.047396 36.939409,367.014396 C53.078409,406.638396 77.686409,440.080396 110.479409,467.527396 C111.252409,468.174396 112.033409,468.813396 112.851409,469.400396 C113.123409,469.595396 113.531409,469.723396 113.859409,469.692396 C114.297409,469.650396 114.375409,469.195396 114.383409,468.826396 C114.412409,467.442396 114.420409,466.056396 114.420409,464.670396 C114.422409,393.245396 114.422409,321.820396 114.420409,250.396396 C114.420409,248.254396 114.388409,246.112396 114.392409,243.971396 C114.400409,238.933396 114.454409,233.894396 114.416409,228.856396 C114.405409,227.399396 114.716409,226.171396 115.676409,225.032396 C117.135409,223.301396 118.479409,221.471396 119.870409,219.680396 C161.420409,166.149396 202.971409,112.617396 244.519409,59.0843962 C254.096409,46.7463962 263.664409,34.4023962 273.226409,22.0533962 C273.840409,21.2613962 274.379409,20.4103962 274.940409,19.5803962 C275.120409,19.3153962 274.804409,18.7723962 274.470409,18.7543962 C273.844409,18.7193962 273.217409,18.6733962 272.590409,18.6643962 C266.030409,18.5803962 259.492409,19.0853962 252.971409,19.6433962 C246.074409,20.2333962 239.210409,21.1453962 232.375409,22.3013962 C220.064409,24.3853962 207.963409,27.2993962 196.101409,31.1763962 C150.873409,45.9573962 112.499409,71.1933962 81.136409,106.969396 C59.119409,132.083396 42.743409,160.506396 32.010409,192.153396 C25.714409,210.715396 21.652409,229.746396 19.868409,249.272396 C19.157409,257.057396 18.823409,264.852396 18.648409,272.608396 M552.133409,273.914396 C552.310409,280.461396 551.854409,287.761396 551.238409,295.035396 C547.488409,339.391396 533.775409,380.433396 509.893409,418.021396 C476.254409,470.965396 424.931409,511.129396 365.500409,531.166396 C352.236409,535.638396 338.716409,539.101396 324.941409,541.545396 C318.746409,542.646396 312.508409,543.479396 306.246409,544.168396 C297.346409,545.149396 288.425409,545.656396 279.480409,545.744396 C271.546409,545.822396 263.611409,545.735396 255.698409,545.004396 C251.811409,544.645396 247.914409,544.395396 244.037409,543.957396 C239.910409,543.491396 235.785409,542.960396 231.687409,542.286396 C222.743409,540.816396 213.879409,538.961396 205.107409,536.652396 C169.842409,527.366396 137.649409,511.747396 108.581409,489.748396 C76.778409,465.680396 51.340409,436.097396 32.376409,401.000396 C20.333409,378.713396 11.640409,355.172396 6.281409,330.398396 C4.523409,322.269396 3.103409,314.085396 2.112409,305.836396 C1.166409,297.960396 0.515409,290.054396 0.298409,282.112396 C0.104409,275.057396 0.158409,268.008396 0.394409,260.957396 C0.580409,255.416396 1.084409,249.900396 1.649409,244.387396 C2.240409,238.621396 3.059409,232.894396 4.013409,227.179396 C6.068409,214.865396 9.024409,202.770396 12.816409,190.883396 C33.089409,127.324396 75.664409,74.8933962 130.157409,41.2783962 C155.984409,25.3483962 183.680409,13.9473962 213.268409,7.15839623 C221.493409,5.27239623 229.776409,3.73439623 238.143409,2.61339623 C246.512409,1.49339623 254.897409,0.631396232 263.339409,0.370396232 C267.870409,0.231396232 272.403409,-0.0276037682 276.934409,0.00239623183 C284.742409,0.0543962318 292.539409,0.422396232 300.326409,1.07839623 C305.851409,1.54339623 311.352409,2.18539623 316.836409,2.95939623 C323.815409,3.94439623 330.750409,5.23539623 337.624409,6.79939623 C363.814409,12.7633962 388.652409,22.2543962 412.101409,35.3773962 C463.824409,64.3213962 505.137409,109.579396 529.023409,163.457396 C536.911409,181.249396 542.787409,199.682396 546.696409,218.736396 C548.138409,225.764396 549.242409,232.853396 550.119409,239.982396 C551.338409,249.899396 552.269409,264.587396 552.133409,273.914396" id="Fill-28"></path>
    </g>
  </g>
</svg>

